<svg width="102" height="53" viewBox="0 0 102 53" fill="none" xmlns="http://www.w3.org/2000/svg">
<path d="M6.56836 44.1304H7.05371C9.27246 44.1304 11.1676 43.8068 12.7393 43.1597C14.334 42.5125 15.6283 41.5649 16.6221 40.3169C17.639 39.0457 18.3786 37.4857 18.8408 35.6367C19.3031 33.7878 19.5342 31.6846 19.5342 29.3271V19.5854C19.5342 17.7827 19.4071 16.2227 19.1528 14.9053C18.8986 13.5648 18.5404 12.4554 18.0781 11.5771C17.6159 10.6758 17.0959 10.0055 16.5181 9.56641C15.9403 9.12728 15.3162 8.90771 14.646 8.90771C13.8602 8.90771 13.1668 9.1735 12.5659 9.70508C11.965 10.2367 11.4565 10.9647 11.0405 11.8892C10.6476 12.7905 10.3472 13.819 10.1392 14.9746C9.93115 16.1302 9.82715 17.3205 9.82715 18.5454C9.82715 19.8397 9.93115 21.0531 10.1392 22.1855C10.3472 23.318 10.6592 24.3234 11.0752 25.2017C11.4912 26.0799 12.0228 26.7617 12.6699 27.2471C13.3171 27.7324 14.0913 27.9751 14.9927 27.9751C15.7323 27.9751 16.4141 27.7671 17.0381 27.3511C17.6621 26.9119 18.2052 26.3341 18.6675 25.6177C19.1297 24.9012 19.4995 24.1154 19.7769 23.2603C20.0542 22.4051 20.2044 21.5269 20.2275 20.6255L23.3823 22.6016C23.3823 24.1732 23.0934 25.7332 22.5156 27.2817C21.9609 28.8302 21.1867 30.2401 20.1929 31.5112C19.1991 32.7824 18.0435 33.7993 16.7261 34.562C15.4318 35.3016 14.0335 35.6714 12.5312 35.6714C10.5205 35.6714 8.74089 35.2438 7.19238 34.3887C5.64388 33.5335 4.33805 32.3433 3.2749 30.8179C2.23486 29.2694 1.44906 27.4666 0.91748 25.4097C0.385905 23.3296 0.120117 21.0877 0.120117 18.6841C0.120117 16.2342 0.455241 13.9346 1.12549 11.7852C1.81885 9.61263 2.80111 7.70589 4.07227 6.06494C5.34342 4.42399 6.88037 3.14128 8.68311 2.2168C10.4858 1.26921 12.4966 0.79541 14.7153 0.79541C16.911 0.79541 18.8986 1.28076 20.6782 2.25146C22.4578 3.22217 23.9832 4.62044 25.2544 6.44629C26.5256 8.24902 27.4963 10.4215 28.1665 12.9639C28.8599 15.4831 29.2065 18.3027 29.2065 21.4229V24.9243C29.2065 28.2293 28.9176 31.3032 28.3398 34.146C27.762 36.9657 26.8838 39.508 25.7051 41.7729C24.5264 44.0379 23.0588 45.9793 21.3022 47.5972C19.5457 49.1919 17.4888 50.4168 15.1313 51.272C12.797 52.104 10.1507 52.52 7.19238 52.52H6.56836V44.1304ZM65.5039 22.3242V31.0952C65.5039 34.8856 65.1457 38.1444 64.4292 40.8716C63.7127 43.5988 62.7074 45.8407 61.4131 47.5972C60.1188 49.3306 58.5819 50.6133 56.8022 51.4453C55.0226 52.2773 53.0581 52.6934 50.9087 52.6934C49.1984 52.6934 47.5921 52.4276 46.0898 51.896C44.5876 51.3644 43.224 50.5555 41.999 49.4692C40.7972 48.3599 39.7572 46.9616 38.8789 45.2744C38.0238 43.5641 37.3651 41.5418 36.9028 39.2075C36.4406 36.8501 36.2095 34.146 36.2095 31.0952V22.3242C36.2095 18.5339 36.5677 15.2866 37.2842 12.5825C38.0238 9.85531 39.0407 7.625 40.335 5.8916C41.6292 4.1582 43.1662 2.88704 44.9458 2.07812C46.7485 1.24609 48.7246 0.830078 50.874 0.830078C52.5612 0.830078 54.1559 1.09587 55.6582 1.62744C57.1836 2.1359 58.5356 2.93327 59.7144 4.01953C60.9162 5.10579 61.9447 6.50407 62.7998 8.21436C63.6781 9.90153 64.3483 11.9238 64.8105 14.2812C65.2728 16.6156 65.5039 19.2965 65.5039 22.3242ZM55.7622 32.4473V20.9028C55.7622 19.1232 55.6813 17.5632 55.5195 16.2227C55.3809 14.8822 55.1844 13.7497 54.9302 12.8252C54.6759 11.9007 54.3408 11.1496 53.9248 10.5718C53.5088 9.99398 53.0465 9.57796 52.5381 9.32373C52.0296 9.04639 51.4634 8.90771 50.8394 8.90771C50.0998 8.90771 49.4295 9.11572 48.8286 9.53174C48.2277 9.94775 47.7077 10.6296 47.2686 11.5771C46.8294 12.5016 46.4943 13.7381 46.2632 15.2866C46.0552 16.812 45.9512 18.6841 45.9512 20.9028V32.4473C45.9512 34.2269 46.0205 35.7985 46.1592 37.1621C46.321 38.5257 46.5405 39.6929 46.8179 40.6636C47.1183 41.6112 47.4535 42.3739 47.8232 42.9517C48.2161 43.5295 48.6668 43.957 49.1753 44.2344C49.7069 44.4886 50.2847 44.6157 50.9087 44.6157C51.6483 44.6157 52.3185 44.4077 52.9194 43.9917C53.5435 43.5526 54.0635 42.8592 54.4795 41.9116C54.8955 40.964 55.2075 39.716 55.4155 38.1675C55.6466 36.5959 55.7622 34.6891 55.7622 32.4473ZM101.42 22.3242V31.0952C101.42 34.8856 101.062 38.1444 100.345 40.8716C99.6287 43.5988 98.6234 45.8407 97.3291 47.5972C96.0348 49.3306 94.4979 50.6133 92.7183 51.4453C90.9386 52.2773 88.9741 52.6934 86.8247 52.6934C85.1144 52.6934 83.5081 52.4276 82.0059 51.896C80.5036 51.3644 79.14 50.5555 77.915 49.4692C76.7132 48.3599 75.6732 46.9616 74.7949 45.2744C73.9398 43.5641 73.2811 41.5418 72.8188 39.2075C72.3566 36.8501 72.1255 34.146 72.1255 31.0952V22.3242C72.1255 18.5339 72.4837 15.2866 73.2002 12.5825C73.9398 9.85531 74.9567 7.625 76.251 5.8916C77.5452 4.1582 79.0822 2.88704 80.8618 2.07812C82.6646 1.24609 84.6406 0.830078 86.79 0.830078C88.4772 0.830078 90.0719 1.09587 91.5742 1.62744C93.0996 2.1359 94.4517 2.93327 95.6304 4.01953C96.8322 5.10579 97.8607 6.50407 98.7158 8.21436C99.5941 9.90153 100.264 11.9238 100.727 14.2812C101.189 16.6156 101.42 19.2965 101.42 22.3242ZM91.6782 32.4473V20.9028C91.6782 19.1232 91.5973 17.5632 91.4355 16.2227C91.2969 14.8822 91.1004 13.7497 90.8462 12.8252C90.592 11.9007 90.2568 11.1496 89.8408 10.5718C89.4248 9.99398 88.9626 9.57796 88.4541 9.32373C87.9456 9.04639 87.3794 8.90771 86.7554 8.90771C86.0158 8.90771 85.3455 9.11572 84.7446 9.53174C84.1437 9.94775 83.6237 10.6296 83.1846 11.5771C82.7454 12.5016 82.4103 13.7381 82.1792 15.2866C81.9712 16.812 81.8672 18.6841 81.8672 20.9028V32.4473C81.8672 34.2269 81.9365 35.7985 82.0752 37.1621C82.237 38.5257 82.4565 39.6929 82.7339 40.6636C83.0343 41.6112 83.3695 42.3739 83.7393 42.9517C84.1322 43.5295 84.5828 43.957 85.0913 44.2344C85.6229 44.4886 86.2007 44.6157 86.8247 44.6157C87.5643 44.6157 88.2345 44.4077 88.8354 43.9917C89.4595 43.5526 89.9795 42.8592 90.3955 41.9116C90.8115 40.964 91.1235 39.716 91.3315 38.1675C91.5627 36.5959 91.6782 34.6891 91.6782 32.4473Z" fill="url(#paint0_linear_7653_128)"/>
<defs>
<linearGradient id="paint0_linear_7653_128" x1="-3" y1="3" x2="19.4438" y2="41.104" gradientUnits="userSpaceOnUse">
<stop stop-color="#D10A42"/>
<stop offset="1" stop-color="#0041CA"/>
</linearGradient>
</defs>
</svg>
