<svg xmlns="http://www.w3.org/2000/svg" xmlns:xlink="http://www.w3.org/1999/xlink"><defs>
<linearGradient id="paint0_linear_7653_167" x1="19.774" y1="3.00672e-05" x2="105.785" y2="10.6444" gradientUnits="userSpaceOnUse">
<stop stop-color="#ED0233"/>
<stop offset="1" stop-color="#003EB7"/>
</linearGradient>
<linearGradient id="paint1_linear_7653_167" x1="14" y1="49.52" x2="54.1858" y2="9.18415" gradientUnits="userSpaceOnUse">
<stop stop-color="#003D85"/>
<stop offset="0.885417" stop-color="#B80027"/>
</linearGradient>

<linearGradient id="paint0_linear_7653_150" x1="-2" y1="3" x2="21.4754" y2="70.4479" gradientUnits="userSpaceOnUse">
<stop stop-color="#D10A42"/>
<stop offset="1" stop-color="#0041CA"/>
</linearGradient>

<linearGradient id="paint0_linear_7653_138" x1="-3" y1="2" x2="28.023" y2="61.4222" gradientUnits="userSpaceOnUse">
<stop stop-color="#D10A42"/>
<stop offset="1" stop-color="#0041CA"/>
</linearGradient>

<linearGradient id="paint0_linear_7653_144" x1="-2" y1="3" x2="29.023" y2="62.4222" gradientUnits="userSpaceOnUse">
<stop stop-color="#D10A42"/>
<stop offset="1" stop-color="#0041CA"/>
</linearGradient>

<linearGradient id="paint0_linear_7653_128" x1="-3" y1="3" x2="19.4438" y2="41.104" gradientUnits="userSpaceOnUse">
<stop stop-color="#D10A42"/>
<stop offset="1" stop-color="#0041CA"/>
</linearGradient>
</defs><symbol id="button-video" viewBox="0 0 100 100"><g fill="none">
<circle cx="50" cy="50" r="49" stroke="url(#paint0_linear_7653_167)" stroke-opacity="0.2" stroke-width="2"/>
<circle cx="50" cy="50" r="36" fill="url(#paint1_linear_7653_167)"/>
<path d="M59 49.5L46.25 56.8612L46.25 42.1388L59 49.5Z" fill="white"/>

</g></symbol><symbol id="logo-club" viewBox="0 0 119 23">
<path d="M5.768 22.252C4.592 22.252 3.572 22.072 2.708 21.712C1.844 21.352 1.184 20.716 0.728 19.804C0.296 18.892 0.08 17.608 0.08 15.952V14.728C0.656 14.728 1.244 14.728 1.844 14.728C2.444 14.728 3.032 14.728 3.608 14.728V16.24C3.608 17.248 3.704 18.028 3.896 18.58C4.088 19.132 4.352 19.516 4.688 19.732C5.024 19.924 5.408 20.02 5.84 20.02C6.536 20.02 7.088 19.792 7.496 19.336C7.928 18.856 8.144 17.968 8.144 16.672C8.144 15.712 8 14.992 7.712 14.512C7.424 14.032 6.968 13.648 6.344 13.36C5.744 13.048 4.964 12.7 4.004 12.316C3.212 11.956 2.528 11.536 1.952 11.056C1.376 10.576 0.944 9.964 0.656 9.22C0.368 8.476 0.224 7.552 0.224 6.448C0.224 5.104 0.392 4.012 0.728 3.172C1.088 2.308 1.688 1.684 2.528 1.3C3.368 0.891999 4.496 0.688 5.912 0.688C7.736 0.688 9.128 1.108 10.088 1.948C11.048 2.764 11.528 3.964 11.528 5.548V8.032C10.976 8.032 10.412 8.032 9.836 8.032C9.284 8.032 8.72 8.032 8.144 8.032V6.556C8.144 5.452 7.964 4.66 7.604 4.18C7.268 3.676 6.716 3.424 5.948 3.424C5.156 3.424 4.58 3.664 4.22 4.144C3.884 4.6 3.716 5.332 3.716 6.34C3.716 7.204 3.884 7.876 4.22 8.356C4.556 8.812 4.988 9.172 5.516 9.436C6.068 9.7 6.632 9.94 7.208 10.156C8.288 10.564 9.164 10.984 9.836 11.416C10.508 11.848 11 12.424 11.312 13.144C11.624 13.864 11.78 14.884 11.78 16.204C11.78 17.716 11.528 18.916 11.024 19.804C10.544 20.668 9.848 21.292 8.936 21.676C8.048 22.06 6.992 22.252 5.768 22.252ZM20.9164 22.432C20.1004 22.432 19.3444 22.372 18.6484 22.252C17.9524 22.132 17.3524 21.892 16.8484 21.532C16.3444 21.172 15.9484 20.632 15.6604 19.912C15.3724 19.192 15.2284 18.22 15.2284 16.996V0.723999H18.6844V17.896C18.6844 18.544 18.7804 19.048 18.9724 19.408C19.1884 19.744 19.4644 19.972 19.8004 20.092C20.1364 20.212 20.5084 20.272 20.9164 20.272C21.3244 20.272 21.6964 20.212 22.0324 20.092C22.3684 19.972 22.6324 19.744 22.8244 19.408C23.0404 19.048 23.1484 18.544 23.1484 17.896V0.723999H26.5684V16.96C26.5684 18.184 26.4244 19.168 26.1364 19.912C25.8724 20.632 25.4884 21.172 24.9844 21.532C24.4804 21.892 23.8804 22.132 23.1844 22.252C22.4884 22.372 21.7324 22.432 20.9164 22.432ZM30.822 22V0.723999H38.022C39.366 0.723999 40.398 1.024 41.118 1.624C41.838 2.224 42.198 3.112 42.198 4.288V8.068C42.198 8.98 42.078 9.832 41.838 10.624C41.622 11.392 41.19 12.016 40.542 12.496C39.918 12.976 39.006 13.216 37.806 13.216H34.422V22H30.822ZM34.422 11.272H36.618C37.338 11.272 37.878 10.996 38.238 10.444C38.598 9.868 38.778 8.944 38.778 7.672V5.764C38.778 4.636 38.622 3.832 38.31 3.352C37.998 2.872 37.566 2.632 37.014 2.632H34.422V11.272ZM45.6045 22V0.723999H55.1805V3.172H49.2045V9.616H54.1365V12.316H49.2045V19.624H55.1805V22H45.6045ZM58.4534 22V0.723999H65.7974C67.1414 0.723999 68.1734 1.024 68.8934 1.624C69.6374 2.224 70.0094 3.112 70.0094 4.288V7.672C70.0094 8.848 69.6854 9.808 69.0374 10.552C68.3894 11.272 67.4294 11.668 66.1574 11.74C66.9734 11.812 67.5494 12.076 67.8854 12.532C68.2454 12.988 68.5694 13.696 68.8574 14.656L70.9094 22H67.0934L65.4014 14.908C65.2334 14.308 65.0414 13.78 64.8254 13.324C64.6094 12.868 64.2614 12.64 63.7814 12.64H62.0174V22H58.4534ZM62.0174 10.228H64.3214C65.1614 10.228 65.7494 10.012 66.0854 9.58C66.4454 9.148 66.6254 8.488 66.6254 7.6V4.9C66.6254 4.108 66.4574 3.532 66.1214 3.172C65.8094 2.812 65.3174 2.632 64.6454 2.632H62.0174V10.228ZM78.6132 22.396C77.7972 22.396 77.0292 22.264 76.3092 22C75.5892 21.76 75.0012 21.268 74.5452 20.524C74.1132 19.756 73.8972 18.616 73.8972 17.104V5.224C73.8972 3.928 74.1372 2.944 74.6172 2.272C75.0972 1.576 75.7692 1.108 76.6332 0.868C77.4972 0.603999 78.4932 0.471998 79.6212 0.471998C80.7492 0.471998 81.7452 0.603999 82.6092 0.868C83.4732 1.132 84.1452 1.612 84.6252 2.308C85.1292 2.98 85.3812 3.952 85.3812 5.224V8.104H82.0332V5.08C82.0332 4.36 81.9252 3.82 81.7092 3.46C81.5172 3.1 81.2412 2.86 80.8812 2.74C80.5452 2.62 80.1372 2.56 79.6572 2.56C79.2252 2.56 78.8292 2.62 78.4692 2.74C78.1092 2.86 77.8212 3.1 77.6052 3.46C77.4132 3.82 77.3172 4.36 77.3172 5.08V17.86C77.3172 18.58 77.4132 19.12 77.6052 19.48C77.8212 19.84 78.1092 20.08 78.4692 20.2C78.8292 20.32 79.2252 20.38 79.6572 20.38C80.3532 20.38 80.9172 20.176 81.3492 19.768C81.8052 19.336 82.0332 18.7 82.0332 17.86V13.54H79.9092V11.56H85.3812V22H82.7892L82.6092 20.2C82.5612 20.296 82.5012 20.404 82.4292 20.524C82.3572 20.62 82.2972 20.704 82.2492 20.776C81.9612 21.208 81.5292 21.592 80.9532 21.928C80.4012 22.24 79.6212 22.396 78.6132 22.396ZM91.9112 22V12.856L87.9512 0.723999H91.3712L93.6032 7.996L93.7832 9.112L93.9992 7.996L96.3392 0.723999H99.5432L95.3672 13.036V22H91.9112ZM102.449 22V0.723999H106.697L110.261 15.844L113.861 0.723999H118.073V22H115.013V5.584L111.449 22H109.073L105.509 5.584V22H102.449Z"/>
</symbol><symbol id="nubber-350" viewBox="0 0 103 53"><g fill="none">
<path d="M10.0298 22.2896H14.7793C16.582 22.2896 17.8994 21.6655 18.7314 20.4175C19.5866 19.1463 20.0142 17.4591 20.0142 15.356C20.0142 13.3452 19.575 11.7852 18.6968 10.6758C17.8416 9.54329 16.686 8.97705 15.23 8.97705C13.8664 8.97705 12.7454 9.50863 11.8672 10.5718C11.012 11.6349 10.5845 12.9754 10.5845 14.5933H0.773438C0.773438 11.9585 1.37435 9.60107 2.57617 7.521C3.80111 5.41781 5.49984 3.77686 7.67236 2.59814C9.868 1.41943 12.2948 0.830078 14.9526 0.830078C19.5981 0.830078 23.2383 2.11279 25.873 4.67822C28.5078 7.24365 29.8252 10.7567 29.8252 15.2173C29.8252 17.5054 29.2243 19.6317 28.0225 21.5962C26.8438 23.5376 25.2837 25.0283 23.3423 26.0684C25.7228 27.0853 27.4909 28.6107 28.6465 30.6445C29.8252 32.6784 30.4146 35.082 30.4146 37.8555C30.4146 42.3392 28.9816 45.9331 26.1157 48.6372C23.2729 51.3413 19.5288 52.6934 14.8833 52.6934C10.5614 52.6934 7.04834 51.3644 4.34424 48.7065C1.66325 46.0256 0.322754 42.5125 0.322754 38.1675H10.1338C10.1338 39.9702 10.6076 41.484 11.5552 42.709C12.5028 43.9339 13.7046 44.5464 15.1606 44.5464C16.8478 44.5464 18.1768 43.9224 19.1475 42.6743C20.1413 41.4263 20.6382 39.7622 20.6382 37.6821C20.6382 32.7131 18.7083 30.217 14.8486 30.1938H10.0298V22.2896ZM38.2148 27.1777L40.7109 1.52344H65.1519V9.91309H48.7539L47.8525 20.7295C49.7477 19.4583 51.7007 18.8228 53.7114 18.8228C57.8716 18.8228 61.0726 20.3019 63.3145 23.2603C65.5794 26.2186 66.7119 30.4019 66.7119 35.8101C66.7119 40.8716 65.3714 44.9508 62.6904 48.0479C60.0094 51.1449 56.4271 52.6934 51.9434 52.6934C49.2855 52.6934 46.8241 52.0693 44.5591 50.8213C42.2941 49.5501 40.5029 47.7936 39.1855 45.5518C37.8913 43.3099 37.2326 40.7676 37.2095 37.9248H46.9165C47.0783 40.028 47.5983 41.6574 48.4766 42.813C49.3548 43.9686 50.4873 44.5464 51.874 44.5464C53.4919 44.5464 54.7399 43.7721 55.6182 42.2236C56.4964 40.652 56.9355 38.3177 56.9355 35.2207C56.9355 32.3086 56.404 30.113 55.3408 28.6338C54.3008 27.1546 52.8332 26.415 50.938 26.415C49.089 26.415 47.6561 27.0506 46.6392 28.3218L46.0151 29.1885L38.2148 27.1777ZM102.455 31.1299C102.455 38.1097 101.183 43.4486 98.6411 47.1465C96.1219 50.8444 92.5164 52.6934 87.8247 52.6934C83.1792 52.6934 79.5853 50.9022 77.043 47.3198C74.5238 43.7144 73.2179 38.5604 73.1255 31.8579V22.3242C73.1255 15.3675 74.3851 10.0518 76.9043 6.37695C79.4235 2.67904 83.0405 0.830078 87.7554 0.830078C92.4702 0.830078 96.0872 2.65592 98.6064 6.30762C101.126 9.95931 102.408 15.1711 102.455 21.9429V31.1299ZM92.6089 20.9028C92.6089 16.9276 92.216 13.9461 91.4302 11.9585C90.6444 9.97087 89.4194 8.97705 87.7554 8.97705C84.6353 8.97705 83.0174 12.6172 82.9019 19.8975V32.4819C82.9019 36.5496 83.2948 39.5773 84.0806 41.5649C84.8895 43.5526 86.1375 44.5464 87.8247 44.5464C89.4194 44.5464 90.5981 43.6219 91.3608 41.7729C92.1466 39.9009 92.5627 37.0465 92.6089 33.21V20.9028Z" fill="url(#paint0_linear_7653_150)"/>

</g></symbol><symbol id="nubber-5plus" viewBox="0 0 65 52"><g fill="none">
<path d="M9.09912 28.1191L1.3335 26.1777L3.86426 0.523438H28.2358V8.84375H11.8379L10.9019 19.6948C11.4334 19.325 12.2192 18.9206 13.2593 18.4814C14.3224 18.0423 15.5011 17.8228 16.7954 17.8228C18.8755 17.8228 20.7244 18.2041 22.3423 18.9668C23.9601 19.7295 25.3237 20.8389 26.4331 22.2949C27.5425 23.751 28.3861 25.5306 28.9639 27.6338C29.5417 29.737 29.8306 32.1175 29.8306 34.7754C29.8306 37.0173 29.5186 39.1551 28.8945 41.189C28.2936 43.2228 27.3807 45.0256 26.1558 46.5972C24.9308 48.1688 23.3939 49.4168 21.5449 50.3413C19.696 51.2427 17.535 51.6934 15.062 51.6934C13.1899 51.6934 11.3757 51.3698 9.61914 50.7227C7.88574 50.0755 6.32568 49.1164 4.93896 47.8452C3.55225 46.5509 2.44287 45.0024 1.61084 43.1997C0.778809 41.3739 0.362793 39.2938 0.362793 36.9595H9.96582C10.0583 38.3231 10.3241 39.5133 10.7632 40.5303C11.2254 41.5241 11.8032 42.2868 12.4966 42.8184C13.2131 43.3499 14.0451 43.6157 14.9927 43.6157C15.9172 43.6157 16.7145 43.3846 17.3848 42.9224C18.055 42.437 18.5866 41.7668 18.9795 40.9116C19.3724 40.0565 19.6613 39.0627 19.8462 37.9302C20.0311 36.7746 20.1235 35.5381 20.1235 34.2207C20.1235 32.8802 19.9964 31.6668 19.7422 30.5806C19.5111 29.4943 19.1413 28.5698 18.6328 27.8071C18.1475 27.0213 17.5234 26.4204 16.7607 26.0044C15.998 25.5653 15.0967 25.3457 14.0566 25.3457C12.6468 25.3457 11.5837 25.6462 10.8672 26.2471C10.1738 26.8249 9.58447 27.4489 9.09912 28.1191ZM64.2559 22.7109V31.7246H35.2041V22.7109H64.2559ZM54.3755 9.19043V45.9385H45.1885V9.19043H54.3755Z" fill="url(#paint0_linear_7653_138)"/>

</g></symbol><symbol id="nubber-70" viewBox="0 0 67 53"><g fill="none">
<path d="M30.8999 7.17432L14.9526 52H4.58691L20.6035 9.67041H0.357422V1.52344H30.8999V7.17432ZM66.5386 31.1299C66.5386 38.1097 65.2674 43.4486 62.7251 47.1465C60.2059 50.8444 56.6004 52.6934 51.9087 52.6934C47.2632 52.6934 43.6693 50.9022 41.127 47.3198C38.6077 43.7144 37.3019 38.5604 37.2095 31.8579V22.3242C37.2095 15.3675 38.4691 10.0518 40.9883 6.37695C43.5075 2.67904 47.1245 0.830078 51.8394 0.830078C56.5542 0.830078 60.1712 2.65592 62.6904 6.30762C65.2096 9.95931 66.4924 15.1711 66.5386 21.9429V31.1299ZM56.6929 20.9028C56.6929 16.9276 56.3 13.9461 55.5142 11.9585C54.7284 9.97087 53.5034 8.97705 51.8394 8.97705C48.7192 8.97705 47.1014 12.6172 46.9858 19.8975V32.4819C46.9858 36.5496 47.3787 39.5773 48.1646 41.5649C48.9735 43.5526 50.2215 44.5464 51.9087 44.5464C53.5034 44.5464 54.6821 43.6219 55.4448 41.7729C56.2306 39.9009 56.6466 37.0465 56.6929 33.21V20.9028Z" fill="url(#paint0_linear_7653_144)"/>

</g></symbol><symbol id="number-100" viewBox="0 0 104 55"><g fill="none">
<path d="M20.9434 54H10.6816V13.8203L0.672852 17.6865V9.15918L19.8594 1.31836H20.9434V54ZM66.4346 32.248C66.4346 39.5228 65.1097 45.0872 62.46 48.9414C59.8343 52.7956 56.0765 54.7227 51.1865 54.7227C46.3447 54.7227 42.599 52.8558 39.9492 49.1221C37.3236 45.3643 35.9626 39.9925 35.8662 33.0068V23.0703C35.8662 15.8197 37.179 10.2793 39.8047 6.44922C42.4303 2.59505 46.2002 0.667969 51.1143 0.667969C56.0283 0.667969 59.7982 2.57096 62.4238 6.37695C65.0495 10.1829 66.3864 15.6149 66.4346 22.6729V32.248ZM56.1729 21.5889C56.1729 17.4456 55.7633 14.3382 54.9443 12.2666C54.1253 10.195 52.8486 9.15918 51.1143 9.15918C47.8623 9.15918 46.1761 12.9531 46.0557 20.541V33.6572C46.0557 37.8968 46.4652 41.0524 47.2842 43.124C48.1273 45.1956 49.4281 46.2314 51.1865 46.2314C52.8486 46.2314 54.0771 45.2679 54.8721 43.3408C55.6911 41.3896 56.1247 38.4147 56.1729 34.416V21.5889ZM103.868 32.248C103.868 39.5228 102.543 45.0872 99.8936 48.9414C97.2679 52.7956 93.5101 54.7227 88.6201 54.7227C83.7783 54.7227 80.0326 52.8558 77.3828 49.1221C74.7572 45.3643 73.3962 39.9925 73.2998 33.0068V23.0703C73.2998 15.8197 74.6126 10.2793 77.2383 6.44922C79.8639 2.59505 83.6338 0.667969 88.5479 0.667969C93.4619 0.667969 97.2318 2.57096 99.8574 6.37695C102.483 10.1829 103.82 15.6149 103.868 22.6729V32.248ZM93.6064 21.5889C93.6064 17.4456 93.1969 14.3382 92.3779 12.2666C91.5589 10.195 90.2822 9.15918 88.5479 9.15918C85.2959 9.15918 83.6097 12.9531 83.4893 20.541V33.6572C83.4893 37.8968 83.8988 41.0524 84.7178 43.124C85.5609 45.1956 86.8617 46.2314 88.6201 46.2314C90.2822 46.2314 91.5107 45.2679 92.3057 43.3408C93.1247 41.3896 93.5583 38.4147 93.6064 34.416V21.5889Z" fill="white"/>
</g></symbol><symbol id="number-900" viewBox="0 0 102 53"><g fill="none">
<path d="M6.56836 44.1304H7.05371C9.27246 44.1304 11.1676 43.8068 12.7393 43.1597C14.334 42.5125 15.6283 41.5649 16.6221 40.3169C17.639 39.0457 18.3786 37.4857 18.8408 35.6367C19.3031 33.7878 19.5342 31.6846 19.5342 29.3271V19.5854C19.5342 17.7827 19.4071 16.2227 19.1528 14.9053C18.8986 13.5648 18.5404 12.4554 18.0781 11.5771C17.6159 10.6758 17.0959 10.0055 16.5181 9.56641C15.9403 9.12728 15.3162 8.90771 14.646 8.90771C13.8602 8.90771 13.1668 9.1735 12.5659 9.70508C11.965 10.2367 11.4565 10.9647 11.0405 11.8892C10.6476 12.7905 10.3472 13.819 10.1392 14.9746C9.93115 16.1302 9.82715 17.3205 9.82715 18.5454C9.82715 19.8397 9.93115 21.0531 10.1392 22.1855C10.3472 23.318 10.6592 24.3234 11.0752 25.2017C11.4912 26.0799 12.0228 26.7617 12.6699 27.2471C13.3171 27.7324 14.0913 27.9751 14.9927 27.9751C15.7323 27.9751 16.4141 27.7671 17.0381 27.3511C17.6621 26.9119 18.2052 26.3341 18.6675 25.6177C19.1297 24.9012 19.4995 24.1154 19.7769 23.2603C20.0542 22.4051 20.2044 21.5269 20.2275 20.6255L23.3823 22.6016C23.3823 24.1732 23.0934 25.7332 22.5156 27.2817C21.9609 28.8302 21.1867 30.2401 20.1929 31.5112C19.1991 32.7824 18.0435 33.7993 16.7261 34.562C15.4318 35.3016 14.0335 35.6714 12.5312 35.6714C10.5205 35.6714 8.74089 35.2438 7.19238 34.3887C5.64388 33.5335 4.33805 32.3433 3.2749 30.8179C2.23486 29.2694 1.44906 27.4666 0.91748 25.4097C0.385905 23.3296 0.120117 21.0877 0.120117 18.6841C0.120117 16.2342 0.455241 13.9346 1.12549 11.7852C1.81885 9.61263 2.80111 7.70589 4.07227 6.06494C5.34342 4.42399 6.88037 3.14128 8.68311 2.2168C10.4858 1.26921 12.4966 0.79541 14.7153 0.79541C16.911 0.79541 18.8986 1.28076 20.6782 2.25146C22.4578 3.22217 23.9832 4.62044 25.2544 6.44629C26.5256 8.24902 27.4963 10.4215 28.1665 12.9639C28.8599 15.4831 29.2065 18.3027 29.2065 21.4229V24.9243C29.2065 28.2293 28.9176 31.3032 28.3398 34.146C27.762 36.9657 26.8838 39.508 25.7051 41.7729C24.5264 44.0379 23.0588 45.9793 21.3022 47.5972C19.5457 49.1919 17.4888 50.4168 15.1313 51.272C12.797 52.104 10.1507 52.52 7.19238 52.52H6.56836V44.1304ZM65.5039 22.3242V31.0952C65.5039 34.8856 65.1457 38.1444 64.4292 40.8716C63.7127 43.5988 62.7074 45.8407 61.4131 47.5972C60.1188 49.3306 58.5819 50.6133 56.8022 51.4453C55.0226 52.2773 53.0581 52.6934 50.9087 52.6934C49.1984 52.6934 47.5921 52.4276 46.0898 51.896C44.5876 51.3644 43.224 50.5555 41.999 49.4692C40.7972 48.3599 39.7572 46.9616 38.8789 45.2744C38.0238 43.5641 37.3651 41.5418 36.9028 39.2075C36.4406 36.8501 36.2095 34.146 36.2095 31.0952V22.3242C36.2095 18.5339 36.5677 15.2866 37.2842 12.5825C38.0238 9.85531 39.0407 7.625 40.335 5.8916C41.6292 4.1582 43.1662 2.88704 44.9458 2.07812C46.7485 1.24609 48.7246 0.830078 50.874 0.830078C52.5612 0.830078 54.1559 1.09587 55.6582 1.62744C57.1836 2.1359 58.5356 2.93327 59.7144 4.01953C60.9162 5.10579 61.9447 6.50407 62.7998 8.21436C63.6781 9.90153 64.3483 11.9238 64.8105 14.2812C65.2728 16.6156 65.5039 19.2965 65.5039 22.3242ZM55.7622 32.4473V20.9028C55.7622 19.1232 55.6813 17.5632 55.5195 16.2227C55.3809 14.8822 55.1844 13.7497 54.9302 12.8252C54.6759 11.9007 54.3408 11.1496 53.9248 10.5718C53.5088 9.99398 53.0465 9.57796 52.5381 9.32373C52.0296 9.04639 51.4634 8.90771 50.8394 8.90771C50.0998 8.90771 49.4295 9.11572 48.8286 9.53174C48.2277 9.94775 47.7077 10.6296 47.2686 11.5771C46.8294 12.5016 46.4943 13.7381 46.2632 15.2866C46.0552 16.812 45.9512 18.6841 45.9512 20.9028V32.4473C45.9512 34.2269 46.0205 35.7985 46.1592 37.1621C46.321 38.5257 46.5405 39.6929 46.8179 40.6636C47.1183 41.6112 47.4535 42.3739 47.8232 42.9517C48.2161 43.5295 48.6668 43.957 49.1753 44.2344C49.7069 44.4886 50.2847 44.6157 50.9087 44.6157C51.6483 44.6157 52.3185 44.4077 52.9194 43.9917C53.5435 43.5526 54.0635 42.8592 54.4795 41.9116C54.8955 40.964 55.2075 39.716 55.4155 38.1675C55.6466 36.5959 55.7622 34.6891 55.7622 32.4473ZM101.42 22.3242V31.0952C101.42 34.8856 101.062 38.1444 100.345 40.8716C99.6287 43.5988 98.6234 45.8407 97.3291 47.5972C96.0348 49.3306 94.4979 50.6133 92.7183 51.4453C90.9386 52.2773 88.9741 52.6934 86.8247 52.6934C85.1144 52.6934 83.5081 52.4276 82.0059 51.896C80.5036 51.3644 79.14 50.5555 77.915 49.4692C76.7132 48.3599 75.6732 46.9616 74.7949 45.2744C73.9398 43.5641 73.2811 41.5418 72.8188 39.2075C72.3566 36.8501 72.1255 34.146 72.1255 31.0952V22.3242C72.1255 18.5339 72.4837 15.2866 73.2002 12.5825C73.9398 9.85531 74.9567 7.625 76.251 5.8916C77.5452 4.1582 79.0822 2.88704 80.8618 2.07812C82.6646 1.24609 84.6406 0.830078 86.79 0.830078C88.4772 0.830078 90.0719 1.09587 91.5742 1.62744C93.0996 2.1359 94.4517 2.93327 95.6304 4.01953C96.8322 5.10579 97.8607 6.50407 98.7158 8.21436C99.5941 9.90153 100.264 11.9238 100.727 14.2812C101.189 16.6156 101.42 19.2965 101.42 22.3242ZM91.6782 32.4473V20.9028C91.6782 19.1232 91.5973 17.5632 91.4355 16.2227C91.2969 14.8822 91.1004 13.7497 90.8462 12.8252C90.592 11.9007 90.2568 11.1496 89.8408 10.5718C89.4248 9.99398 88.9626 9.57796 88.4541 9.32373C87.9456 9.04639 87.3794 8.90771 86.7554 8.90771C86.0158 8.90771 85.3455 9.11572 84.7446 9.53174C84.1437 9.94775 83.6237 10.6296 83.1846 11.5771C82.7454 12.5016 82.4103 13.7381 82.1792 15.2866C81.9712 16.812 81.8672 18.6841 81.8672 20.9028V32.4473C81.8672 34.2269 81.9365 35.7985 82.0752 37.1621C82.237 38.5257 82.4565 39.6929 82.7339 40.6636C83.0343 41.6112 83.3695 42.3739 83.7393 42.9517C84.1322 43.5295 84.5828 43.957 85.0913 44.2344C85.6229 44.4886 86.2007 44.6157 86.8247 44.6157C87.5643 44.6157 88.2345 44.4077 88.8354 43.9917C89.4595 43.5526 89.9795 42.8592 90.3955 41.9116C90.8115 40.964 91.1235 39.716 91.3315 38.1675C91.5627 36.5959 91.6782 34.6891 91.6782 32.4473Z" fill="url(#paint0_linear_7653_128)"/>

</g></symbol><symbol id="ok" viewBox="0 0 25 25">
<path d="M12.5 0C5.59692 0 0 5.59692 0 12.5C0 19.4031 5.59692 25 12.5 25C19.4031 25 25 19.4031 25 12.5C25 5.59692 19.4031 0 12.5 0Z"/>
<path d="M12.6804 6.88882C13.5788 6.88882 14.3096 7.64312 14.3096 8.57064C14.3096 9.49536 13.5788 10.2497 12.6804 10.2497C11.7819 10.2497 11.0512 9.49536 11.0512 8.57064C11.0512 7.64312 11.7819 6.88882 12.6804 6.88882ZM12.6804 12.6299C14.8508 12.6299 16.6153 10.8084 16.6153 8.57064C16.6153 6.33008 14.8508 4.50858 12.6804 4.50858C10.5099 4.50858 8.74809 6.33008 8.74809 8.57064C8.74809 10.8084 10.5099 12.6299 12.6804 12.6299ZM14.2717 15.9432C15.0727 15.7533 15.844 15.4264 16.5558 14.9654C17.0943 14.6162 17.2567 13.8815 16.9184 13.3255C16.5774 12.7668 15.8684 12.5992 15.3271 12.9512C13.7169 13.996 11.6438 13.996 10.0309 12.9512C9.49232 12.5992 8.78057 12.7668 8.44228 13.3255C8.10399 13.8815 8.26637 14.6162 8.80492 14.9654C9.51668 15.4264 10.288 15.7533 11.089 15.9432L8.88882 18.2117C8.43957 18.6755 8.43957 19.4298 8.88882 19.8936C9.11615 20.1254 9.40843 20.2428 9.70342 20.2428C9.9984 20.2428 10.2934 20.1254 10.5207 19.8936L12.6804 17.6642L14.8427 19.8936C15.2919 20.3601 16.0199 20.3601 16.4719 19.8936C16.9211 19.4298 16.9211 18.6755 16.4719 18.2117L14.2717 15.9432Z" fill="#030A1A"/>
</symbol><symbol id="reddit" viewBox="0 0 25 25">
<path d="M12.5 0C5.59692 0 0 5.59692 0 12.5C0 19.4031 5.59692 25 12.5 25C19.4031 25 25 19.4031 25 12.5C25 5.59692 19.4031 0 12.5 0Z"/>
<path d="M13.8509 5.55566C13.4055 5.55566 12.9876 5.7816 12.7195 6.10741C12.4514 6.43323 12.3037 6.8304 12.196 7.24897C12.0251 7.92201 11.9723 8.66877 11.9596 9.34181C10.7079 9.42505 9.57444 9.79606 8.63303 10.3692C8.25098 10.0481 7.79083 9.86978 7.34968 9.87454C6.84731 9.87929 6.37028 10.0957 6.01566 10.5404C5.3381 11.3895 5.4162 12.7784 6.20141 13.6036C6.15286 13.8581 6.11698 14.1197 6.11698 14.3837C6.11698 17.1805 8.97498 19.4446 12.5 19.4446C16.025 19.4446 18.883 17.1781 18.883 14.3837C18.883 14.1197 18.8471 13.8581 18.7986 13.6036C19.5838 12.7784 19.6619 11.3895 18.9843 10.5404C18.6297 10.0957 18.1527 9.87929 17.6503 9.87454C17.2091 9.86978 16.749 10.0481 16.3669 10.3692C15.4298 9.79843 14.3026 9.42743 13.0572 9.34181C13.0741 8.72109 13.1184 8.07659 13.243 7.59143C13.3211 7.28702 13.414 7.06584 13.5132 6.94455C13.6124 6.82326 13.6841 6.77332 13.8509 6.77332C14.2118 6.77332 14.2583 6.88985 14.4757 7.17286C14.5854 7.31556 14.7121 7.49393 14.9147 7.66754C15.1174 7.84115 15.4171 7.99098 15.7421 7.99098V6.77332C15.6514 6.77332 15.6345 6.77094 15.5733 6.71624C15.5121 6.66154 15.4276 6.5355 15.3031 6.37378C15.054 6.04796 14.5707 5.55566 13.8509 5.55566ZM17.3632 5.66982C16.5231 5.66982 15.8435 6.43561 15.8435 7.38215C15.8435 8.32869 16.5231 9.09448 17.3632 9.09448C18.2033 9.09448 18.883 8.32869 18.883 7.38215C18.883 6.43561 18.2033 5.66982 17.3632 5.66982ZM17.3632 6.27865C17.9036 6.27865 18.3426 6.77332 18.3426 7.38215C18.3426 7.99098 17.9036 8.48565 17.3632 8.48565C16.8229 8.48565 16.3838 7.99098 16.3838 7.38215C16.3838 6.77332 16.8229 6.27865 17.3632 6.27865ZM12.5 10.2931C15.491 10.2931 18.0218 12.1695 18.0218 14.3837C18.0218 16.6002 15.491 18.4742 12.5 18.4742C9.50901 18.4742 6.97818 16.6002 6.97818 14.3837C6.97818 12.1695 9.50901 10.2931 12.5 10.2931ZM7.36656 10.8449C7.51643 10.8472 7.67263 10.8853 7.82249 10.959C7.28002 11.4228 6.84942 11.9555 6.55602 12.5572C6.35339 12.0863 6.40827 11.4989 6.65734 11.1873C6.83887 10.959 7.09005 10.8425 7.36656 10.8449ZM17.6334 10.8449C17.9099 10.8425 18.1611 10.959 18.3426 11.1873C18.5917 11.4989 18.6466 12.0863 18.4439 12.5572C18.1506 11.9555 17.72 11.4228 17.1775 10.959C17.3273 10.8853 17.4835 10.8472 17.6334 10.8449ZM10.3385 12.3669C9.79819 12.3669 9.35914 12.8616 9.35914 13.4704C9.35914 14.0793 9.79819 14.5739 10.3385 14.5739C10.8789 14.5739 11.3179 14.0793 11.3179 13.4704C11.3179 12.8616 10.8789 12.3669 10.3385 12.3669ZM14.6614 12.3669C14.1211 12.3669 13.682 12.8616 13.682 13.4704C13.682 14.0793 14.1211 14.5739 14.6614 14.5739C15.2018 14.5739 15.6408 14.0793 15.6408 13.4704C15.6408 12.8616 15.2018 12.3669 14.6614 12.3669ZM9.81507 16.115C10.1591 16.9165 11.223 17.6942 12.5 17.6942C13.777 17.6942 14.8577 16.9165 15.2018 16.115C14.577 16.5693 13.5913 16.8761 12.5 16.8761C11.4087 16.8761 10.4399 16.5693 9.81507 16.115Z" fill="#030A1A"/>
</symbol><symbol id="rouble" viewBox="0 0 30 42"><g fill="none">
<path fill-rule="evenodd" clip-rule="evenodd" d="M0 17H6V23H0V17Z" fill="#102654"/>
<path fill-rule="evenodd" clip-rule="evenodd" d="M3.65854 28.3214V18H9.65854V28.3214H21V34.3214H9.65854V42H3.65854V34.3214H0V28.3214H3.65854Z" fill="#102654"/>
<path fill-rule="evenodd" clip-rule="evenodd" d="M18.5 6H10V17H18.5C21.5376 17 24 14.5376 24 11.5C24 8.46243 21.5376 6 18.5 6ZM4 0V23H18.5C24.8513 23 30 17.8513 30 11.5C30 5.14873 24.8513 0 18.5 0H4Z" fill="#102654"/>
</g></symbol><symbol id="vk" viewBox="0 0 25 25">
<path d="M12.5 0C5.59692 0 0 5.59692 0 12.5C0 19.4031 5.59692 25 12.5 25C19.4031 25 25 19.4031 25 12.5C25 5.59692 19.4031 0 12.5 0Z"/>
<path d="M13.7227 15.0518C14.1654 14.9087 14.7322 15.9964 15.3355 16.4127C15.7884 16.728 16.1352 16.6599 16.1352 16.6599L17.7434 16.6368C17.7434 16.6368 18.5838 16.5849 18.1865 15.9172C18.1536 15.8616 17.9536 15.4222 16.9895 14.5179C15.9815 13.5718 16.1181 13.7251 17.3317 12.0896C18.0712 11.0927 18.3671 10.4838 18.2745 10.2244C18.1856 9.97486 17.6424 10.0397 17.6424 10.0397L15.8305 10.0522C15.6541 10.0527 15.5045 10.1073 15.4365 10.2907C15.4351 10.2925 15.1489 11.0621 14.7674 11.7164C13.9612 13.1005 13.6394 13.1741 13.506 13.0875C13.1999 12.887 13.2773 12.2832 13.2773 11.8539C13.2773 10.5125 13.4773 9.9531 12.8855 9.80863C12.6878 9.76047 12.5433 9.72898 12.0391 9.72435C11.3945 9.71463 10.8472 9.72435 10.5369 9.8767C10.3309 9.97996 10.173 10.2064 10.2688 10.2194C10.3892 10.2356 10.6592 10.2934 10.8036 10.4907C10.9893 10.7463 10.9838 11.3191 10.9838 11.3191C10.9838 11.3191 11.0898 12.8986 10.7337 13.0944C10.4892 13.2287 10.1549 12.9546 9.43578 11.6979C9.06858 11.0552 8.79121 10.3448 8.79121 10.3448C8.79121 10.3448 8.7375 10.2129 8.64026 10.1406C8.52449 10.055 8.36243 10.0277 8.36243 10.0277L6.64265 10.0388C6.64265 10.0388 6.38427 10.0462 6.28935 10.1601C6.20507 10.261 6.2824 10.4694 6.2824 10.4694C6.2824 10.4694 7.62942 13.6557 9.15471 15.2606C10.5531 16.734 12.1423 16.6363 12.1423 16.6363H12.8624C12.8624 16.6363 13.0795 16.6113 13.1907 16.4918C13.2944 16.3807 13.2898 16.1719 13.2898 16.1719C13.2898 16.1719 13.2754 15.1953 13.7227 15.0518Z" fill="#030A1A"/>
</symbol></svg>