<svg width="65" height="52" viewBox="0 0 65 52" fill="none" xmlns="http://www.w3.org/2000/svg">
<path d="M9.09912 28.1191L1.3335 26.1777L3.86426 0.523438H28.2358V8.84375H11.8379L10.9019 19.6948C11.4334 19.325 12.2192 18.9206 13.2593 18.4814C14.3224 18.0423 15.5011 17.8228 16.7954 17.8228C18.8755 17.8228 20.7244 18.2041 22.3423 18.9668C23.9601 19.7295 25.3237 20.8389 26.4331 22.2949C27.5425 23.751 28.3861 25.5306 28.9639 27.6338C29.5417 29.737 29.8306 32.1175 29.8306 34.7754C29.8306 37.0173 29.5186 39.1551 28.8945 41.189C28.2936 43.2228 27.3807 45.0256 26.1558 46.5972C24.9308 48.1688 23.3939 49.4168 21.5449 50.3413C19.696 51.2427 17.535 51.6934 15.062 51.6934C13.1899 51.6934 11.3757 51.3698 9.61914 50.7227C7.88574 50.0755 6.32568 49.1164 4.93896 47.8452C3.55225 46.5509 2.44287 45.0024 1.61084 43.1997C0.778809 41.3739 0.362793 39.2938 0.362793 36.9595H9.96582C10.0583 38.3231 10.3241 39.5133 10.7632 40.5303C11.2254 41.5241 11.8032 42.2868 12.4966 42.8184C13.2131 43.3499 14.0451 43.6157 14.9927 43.6157C15.9172 43.6157 16.7145 43.3846 17.3848 42.9224C18.055 42.437 18.5866 41.7668 18.9795 40.9116C19.3724 40.0565 19.6613 39.0627 19.8462 37.9302C20.0311 36.7746 20.1235 35.5381 20.1235 34.2207C20.1235 32.8802 19.9964 31.6668 19.7422 30.5806C19.5111 29.4943 19.1413 28.5698 18.6328 27.8071C18.1475 27.0213 17.5234 26.4204 16.7607 26.0044C15.998 25.5653 15.0967 25.3457 14.0566 25.3457C12.6468 25.3457 11.5837 25.6462 10.8672 26.2471C10.1738 26.8249 9.58447 27.4489 9.09912 28.1191ZM64.2559 22.7109V31.7246H35.2041V22.7109H64.2559ZM54.3755 9.19043V45.9385H45.1885V9.19043H54.3755Z" fill="url(#paint0_linear_7653_138)"/>
<defs>
<linearGradient id="paint0_linear_7653_138" x1="-3" y1="2" x2="28.023" y2="61.4222" gradientUnits="userSpaceOnUse">
<stop stop-color="#D10A42"/>
<stop offset="1" stop-color="#0041CA"/>
</linearGradient>
</defs>
</svg>
