<svg width="104" height="55" viewBox="0 0 104 55" fill="none" xmlns="http://www.w3.org/2000/svg">
<path d="M20.9434 54H10.6816V13.8203L0.672852 17.6865V9.15918L19.8594 1.31836H20.9434V54ZM66.4346 32.248C66.4346 39.5228 65.1097 45.0872 62.46 48.9414C59.8343 52.7956 56.0765 54.7227 51.1865 54.7227C46.3447 54.7227 42.599 52.8558 39.9492 49.1221C37.3236 45.3643 35.9626 39.9925 35.8662 33.0068V23.0703C35.8662 15.8197 37.179 10.2793 39.8047 6.44922C42.4303 2.59505 46.2002 0.667969 51.1143 0.667969C56.0283 0.667969 59.7982 2.57096 62.4238 6.37695C65.0495 10.1829 66.3864 15.6149 66.4346 22.6729V32.248ZM56.1729 21.5889C56.1729 17.4456 55.7633 14.3382 54.9443 12.2666C54.1253 10.195 52.8486 9.15918 51.1143 9.15918C47.8623 9.15918 46.1761 12.9531 46.0557 20.541V33.6572C46.0557 37.8968 46.4652 41.0524 47.2842 43.124C48.1273 45.1956 49.4281 46.2314 51.1865 46.2314C52.8486 46.2314 54.0771 45.2679 54.8721 43.3408C55.6911 41.3896 56.1247 38.4147 56.1729 34.416V21.5889ZM103.868 32.248C103.868 39.5228 102.543 45.0872 99.8936 48.9414C97.2679 52.7956 93.5101 54.7227 88.6201 54.7227C83.7783 54.7227 80.0326 52.8558 77.3828 49.1221C74.7572 45.3643 73.3962 39.9925 73.2998 33.0068V23.0703C73.2998 15.8197 74.6126 10.2793 77.2383 6.44922C79.8639 2.59505 83.6338 0.667969 88.5479 0.667969C93.4619 0.667969 97.2318 2.57096 99.8574 6.37695C102.483 10.1829 103.82 15.6149 103.868 22.6729V32.248ZM93.6064 21.5889C93.6064 17.4456 93.1969 14.3382 92.3779 12.2666C91.5589 10.195 90.2822 9.15918 88.5479 9.15918C85.2959 9.15918 83.6097 12.9531 83.4893 20.541V33.6572C83.4893 37.8968 83.8988 41.0524 84.7178 43.124C85.5609 45.1956 86.8617 46.2314 88.6201 46.2314C90.2822 46.2314 91.5107 45.2679 92.3057 43.3408C93.1247 41.3896 93.5583 38.4147 93.6064 34.416V21.5889Z" fill="white"/>
</svg>
